<svg id="Layer_1" enable-background="new 0 0 512.007 512.007" height="512" viewBox="0 0 512.007 512.007" width="512" xmlns="http://www.w3.org/2000/svg"><path d="m379.363 436.911c-116.676 48.047-125.164 51.537-125.27 51.59-8.96 4.78-19.21 7.5-30.09 7.5-74.201 0-120.482-70.357-148.78-138.63-47.92-115.55-59.22-261.37-59.22-261.37l48 32 16-64 48 32 16-64 48 32 32-48s2.53 31.42 10.28 76.89c11.62 68.19 34.98 167.96 79.14 240.72 37.148 58.196 23.719 37.158 65.94 103.3z" fill="#f2f2f2"/><path d="m379.363 436.911c-116.676 48.047-125.164 51.537-125.27 51.59-8.96 4.78-19.21 7.5-30.09 7.5-31.95 0-59.15-13.04-82.26-34.4 36.89-18.95 133.13-53.56 202.99-78.94z" fill="#e6e6e6"/><path d="m478.333 396.161-224.17 92.3c20.14-10.78 33.84-32.02 33.84-56.46 0-35.35-28.65-64-64-64 108.28-41.643 62.691-24.109 208-80 56.412 0 84.814 67.814 46.33 108.16z" fill="#fc9792"/><path d="m432.003 272.001c-4.245 0 3.904-2.644-111.593 41.777-65.076-117.243-80.309-297.2-80.459-299.063-1.213-15.065-20.854-20.2-29.261-7.59l-23.125 34.687-34.688-23.124c-9.187-6.126-21.714-1.305-24.397 9.432l-10.493 41.974-29.109-19.405c-9.168-6.116-21.708-1.327-24.397 9.432l-10.493 41.974-29.11-19.406c-11.078-7.386-25.858 1.256-24.827 14.549.322 4.152 8.228 102.86 38.247 203.344 29.267 97.967 83.977 211.42 185.705 211.42 12.861 0 25.622-3.123 36.958-9.036l172.535-71.039c3.28-.304 6.274-1.591 8.678-3.573 46.654-19.209 44.587-17.845 47.737-21.148 48.33-50.67 12.14-135.205-57.908-135.205zm-184.784 202.024c-5.465 2.246-6.212 2.47-7.763 3.447-4.93 1.681-10.102 2.529-15.453 2.529-123.013 0-172.933-229.479-188.406-351.708l19.531 13.021c9.169 6.116 21.709 1.326 24.397-9.432l10.493-41.974 29.109 19.405c9.186 6.127 21.714 1.303 24.397-9.432l10.493-41.974 29.109 19.405c7.351 4.904 17.286 2.916 22.188-4.438l7.841-11.761c12.012 86.033 35.926 188.215 77.109 264.257l-72.007 27.695c-7.195 2.768-11.395 10.274-9.987 17.854s8.021 13.079 15.731 13.079c26.468 0 48 21.532 48 48 .002 17.514-9.474 33.551-24.782 42.027zm221.647-91.269c-89.269 36.755-127.363 52.441-167.298 68.884 7.968-31.566-3.893-65.044-30.773-84.493 160.163-61.598 3.112-1.197 163.975-63.066 39.449 2.253 59.143 48.724 34.096 78.675z"/><path d="m101.946 206.857 80-32c8.204-3.281 12.195-12.593 8.913-20.798-3.281-8.204-12.594-12.192-20.798-8.913l-80 32c-8.204 3.281-12.195 12.593-8.913 20.798 3.265 8.163 12.556 12.21 20.798 8.913z"/><path d="m206.859 218.059c-3.281-8.203-12.594-12.195-20.798-8.913l-80 32c-8.204 3.281-12.195 12.593-8.913 20.798 2.502 6.256 8.511 10.062 14.86 10.062 4.327 0-.935 1.601 85.938-33.148 8.204-3.282 12.195-12.594 8.913-20.799z"/><path d="m352.003 240.001c8.837 0 16-7.163 16-16v-16h32c8.837 0 16-7.163 16-16s-7.163-16-16-16h-32v-16h40c30.879 0 56-25.121 56-56s-25.121-56-56-56h-56c-8.837 0-16 7.163-16 16v160c0 8.837 7.163 16 16 16zm16-160h40c13.233 0 24 10.767 24 24s-10.767 24-24 24h-40z"/></svg>