<?xml version="1.0" encoding="utf-8"?>
<!-- Generator: Adobe Illustrator 22.1.0, SVG Export Plug-In . SVG Version: 6.00 Build 0)  -->
<svg version="1.1" id="Shopping" xmlns="http://www.w3.org/2000/svg" xmlns:xlink="http://www.w3.org/1999/xlink" x="0px" y="0px"
	 viewBox="0 0 48 48" style="enable-background:new 0 0 48 48;" xml:space="preserve">
<style type="text/css">
	.st0{fill:none;stroke:#ffffff;stroke-width:2;stroke-linejoin:round;}
	.st1{fill:none;stroke:#000000;stroke-width:2;stroke-linejoin:round;stroke-miterlimit:10;}
</style>
<path id="cart_1_" class="st0" d="M35,36c-0.4,0-12.5,0-19,0c-4.5,0-4.7-4.7-5-7 M35,36c-2.2,0-4,1.8-4,4s1.8,4,4,4s4-1.8,4-4
	S37.2,36,35,36z M3,7h3.2c0.5,0,0.9,0.3,1,0.8L8.3,14 M11,29c0.4,0,18.4,0,28.2,0c0.5,0,0.9-0.3,1-0.8l2.6-13c0.1-0.6-0.3-1.2-1-1.2
	H8.3 M11,29L8.3,14 M19,40c0,2.2-1.8,4-4,4s-4-1.8-4-4s1.8-4,4-4S19,37.8,19,40z"/>
</svg>
