<?xml version="1.0" encoding="utf-8"?>
<!-- Generator: Adobe Illustrator 16.0.0, SVG Export Plug-In . SVG Version: 6.00 Build 0)  -->
<!DOCTYPE svg PUBLIC "-//W3C//DTD SVG 1.0//EN" "http://www.w3.org/TR/2001/REC-SVG-20010904/DTD/svg10.dtd">
<svg version="1.0" id="Layer_1" xmlns="http://www.w3.org/2000/svg" xmlns:xlink="http://www.w3.org/1999/xlink" x="0px" y="0px"
	 width="308.817px" height="82.599px" viewBox="0 0 308.817 82.599" enable-background="new 0 0 308.817 82.599"
	 xml:space="preserve">
<g>
	<g>
		<g>
			<path d="M72.557,19.437v2.301H53.173v12.44h17.68v2.301h-17.68v12.78h-2.556V19.437H72.557z"/>
			<path d="M78.95,19.437h2.556v27.521H99.91v2.301H78.95V19.437z"/>
			<path d="M118.103,19.182c8.372,0,15.166,6.794,15.166,15.166s-6.794,15.167-15.166,15.167s-15.167-6.795-15.167-15.167
				S109.731,19.182,118.103,19.182z M118.103,47.214c6.96,0,12.61-5.906,12.61-12.866s-5.65-12.866-12.61-12.866
				s-12.61,5.906-12.61,12.866S111.143,47.214,118.103,47.214z"/>
			<path d="M160.409,20.928l8.249,26.249l10.581-27.74h2.471l-11.375,29.822h-3.621l-7.615-24.23l-7.892,24.23h-3.621L136.21,19.437
				h2.684l10.594,27.773l8.577-26.282H160.409z"/>
			<path d="M208.552,19.437v2.301h-19.427v11.418h16.871v2.3h-16.871v11.503h19.427v2.301h-21.983V19.437H208.552z"/>
			<path d="M232.24,19.437c5.55,0,10.054,4.391,10.054,9.799c0,5.409-4.504,9.799-10.054,9.799h-0.377l11.112,10.225h-3.802
				l-10.7-10.225h-10.207v10.225h-2.557V19.437H232.24z M218.266,36.733h13.974c4.139,0,7.498-3.358,7.498-7.498
				c0-4.139-3.359-7.498-7.498-7.498h-13.974V36.733z"/>
			<path d="M247.408,41.656c2.843,3.378,7.32,5.558,12.354,5.558c5.709,0,10.225-2.684,10.225-6.05
				c0-3.578-4.558-5.154-10.182-6.604c-4.814-1.235-11.119-2.939-11.119-8.18c0-4.176,4.652-7.157,11.076-7.199
				c4.019,0,7.718,1.175,10.651,3.145v3.025c-2.679-2.384-6.461-3.87-10.651-3.87c-4.941,0.043-8.52,2.058-8.52,4.899
				c0,2.812,3.876,4.346,9.287,5.752c5.112,1.32,12.014,3.109,12.014,9.031c0,4.644-5.581,8.351-12.781,8.351
				c-4.773,0-9.118-1.682-12.354-4.427V41.656z"/>
		</g>
	</g>
	<g>
		<polygon points="89.462,7.694 87.188,0.456 85.941,0.456 83.57,7.72 80.625,0 79.072,0 82.691,9.487 84.398,9.487 86.516,2.986 
			88.558,9.487 90.266,9.487 93.886,0 92.397,0 		"/>
		<polygon points="130.159,4.064 124.951,4.064 124.951,0 123.436,0 123.436,9.487 124.951,9.487 124.951,5.397 130.159,5.397 
			130.159,9.487 131.673,9.487 131.673,0 130.159,0 		"/>
		<rect x="162.637" width="1.516" height="9.487"/>
		<polygon points="194.038,1.306 197.737,1.306 197.737,9.487 199.252,9.487 199.252,1.306 202.952,1.306 202.952,0 194.038,0 		"/>
		<polygon points="240.292,1.332 240.292,0 232.835,0 232.835,9.487 240.292,9.487 240.292,8.155 234.35,8.155 234.35,5.397 
			239.508,5.397 239.508,4.064 234.35,4.064 234.35,1.332 		"/>
	</g>
	<path d="M295.731,72.777c5.352,0.317,11.621-1.335,13.086-2.567c-1.742-5.309-9.244-7.293-12.504-7.436
		c4.012-1.54,7.91-3.75,7.886-7.822c-7.874-3.237-17.38,1.674-22.173,7.879c0,0-181.511-14.491-282.026,13.554
		c0,0,95.999-26.464,281.334-9.957c2.266,8.705,13.559,17.37,18.5,16.034C300.27,79.415,298.345,74.232,295.731,72.777z"/>
</g>
</svg>
